<?xml version="1.0" encoding="utf-8"?>
<!-- Generator: Adobe Illustrator 16.0.0, SVG Export Plug-In . SVG Version: 6.00 Build 0)  -->
<!DOCTYPE svg PUBLIC "-//W3C//DTD SVG 1.1//EN" "http://www.w3.org/Graphics/SVG/1.1/DTD/svg11.dtd">
<svg version="1.1" id="Layer_1" xmlns="http://www.w3.org/2000/svg" xmlns:xlink="http://www.w3.org/1999/xlink" x="0px" y="0px"
	 width="30px" height="29.999px" viewBox="0 0 30 29.999" enable-background="new 0 0 30 29.999" xml:space="preserve">
<g>
	<g>
		<circle fill="#517FA4" cx="15" cy="15" r="15"/>
		<g>
			<path fill="#FFFFFF" d="M20.367,6.25H9.632c-1.865,0-3.383,1.516-3.383,3.381v3.573v7.164c0,1.864,1.518,3.382,3.383,3.382
				h10.734c1.865,0,3.382-1.518,3.382-3.382v-7.164V9.631C23.749,7.766,22.232,6.25,20.367,6.25z M21.336,8.268l0.388-0.002v0.386
				v2.58l-2.956,0.011l-0.011-2.966L21.336,8.268z M12.502,13.204c0.562-0.776,1.47-1.284,2.498-1.284
				c1.027,0,1.937,0.508,2.497,1.284C17.862,13.709,18.08,14.33,18.08,15c0,1.697-1.383,3.08-3.08,3.08
				c-1.698,0-3.08-1.383-3.08-3.08C11.92,14.33,12.138,13.709,12.502,13.204z M22.044,20.368c0,0.925-0.753,1.677-1.678,1.677H9.632
				c-0.925,0-1.677-0.752-1.677-1.677v-7.164h2.612c-0.226,0.554-0.353,1.161-0.353,1.795c0,2.638,2.147,4.785,4.785,4.785
				c2.639,0,4.784-2.147,4.784-4.785c0-0.635-0.127-1.241-0.353-1.795h2.613V20.368z"/>
		</g>
	</g>
</g>
<g>
</g>
<g>
</g>
<g>
</g>
<g>
</g>
<g>
</g>
<g>
</g>
</svg>
