<?xml version="1.0" encoding="utf-8"?>
<!-- Generator: Adobe Illustrator 16.0.0, SVG Export Plug-In . SVG Version: 6.00 Build 0)  -->
<!DOCTYPE svg PUBLIC "-//W3C//DTD SVG 1.1//EN" "http://www.w3.org/Graphics/SVG/1.1/DTD/svg11.dtd">
<svg version="1.1" id="Layer_1" xmlns="http://www.w3.org/2000/svg" xmlns:xlink="http://www.w3.org/1999/xlink" x="0px" y="0px"
	 width="30px" height="29.999px" viewBox="0 0 30 29.999" enable-background="new 0 0 30 29.999" xml:space="preserve">
<g>
	<g>
		<circle fill="#D53F26" cx="15" cy="15" r="15"/>
		<g>
			<path fill="#FFFFFF" d="M20.374,14.606H9.626c-1.709,0-3.093,1.386-3.093,3.095v2.485c0,1.709,1.384,3.095,3.093,3.095h10.748
				c1.709,0,3.093-1.386,3.093-3.095v-2.485C23.467,15.993,22.083,14.606,20.374,14.606z M11.884,16.542h-0.999v4.966H9.919v-4.966
				H8.922v-0.844h2.962V16.542z M14.707,21.508H13.85v-0.471c-0.159,0.174-0.321,0.307-0.493,0.396
				c-0.171,0.093-0.337,0.137-0.5,0.137c-0.198,0-0.345-0.062-0.445-0.191c-0.1-0.128-0.151-0.317-0.151-0.574v-3.583h0.857v3.288
				c0,0.102,0.018,0.175,0.052,0.22c0.038,0.047,0.097,0.068,0.177,0.068c0.061,0,0.142-0.029,0.239-0.09
				c0.095-0.062,0.184-0.137,0.264-0.23v-3.256h0.857V21.508z M17.815,20.622c0,0.305-0.067,0.536-0.201,0.698
				c-0.133,0.162-0.329,0.243-0.583,0.243c-0.168,0-0.317-0.03-0.449-0.094c-0.129-0.063-0.252-0.158-0.365-0.291v0.33h-0.866v-5.81
				h0.866v1.87c0.116-0.129,0.239-0.229,0.366-0.298c0.132-0.068,0.262-0.103,0.396-0.103c0.271,0,0.479,0.092,0.62,0.273
				c0.144,0.184,0.215,0.45,0.215,0.802V20.622z M20.787,19.468h-1.64v0.807c0,0.227,0.028,0.383,0.084,0.471
				s0.154,0.129,0.291,0.129c0.143,0,0.24-0.036,0.298-0.109c0.056-0.076,0.085-0.237,0.085-0.49V20.08h0.881v0.222
				c0,0.438-0.106,0.769-0.324,0.992c-0.212,0.221-0.533,0.33-0.96,0.33c-0.385,0-0.688-0.115-0.907-0.353
				c-0.22-0.233-0.331-0.559-0.331-0.97v-1.927c0-0.371,0.121-0.675,0.365-0.909c0.242-0.233,0.552-0.351,0.938-0.351
				c0.392,0,0.693,0.108,0.903,0.326c0.211,0.217,0.316,0.527,0.316,0.934V19.468z"/>
			<path fill="#FFFFFF" d="M19.529,17.865c-0.136,0-0.234,0.039-0.292,0.118c-0.061,0.075-0.09,0.205-0.09,0.385V18.8h0.758v-0.433
				c0-0.18-0.031-0.31-0.09-0.385C19.757,17.904,19.66,17.865,19.529,17.865z"/>
			<path fill="#FFFFFF" d="M16.575,17.851c-0.061,0-0.122,0.012-0.182,0.04c-0.06,0.028-0.119,0.073-0.176,0.132v2.67
				c0.069,0.069,0.137,0.122,0.203,0.153c0.066,0.028,0.134,0.046,0.208,0.046c0.104,0,0.182-0.031,0.23-0.092
				c0.049-0.062,0.075-0.157,0.075-0.296v-2.213c0-0.146-0.031-0.255-0.089-0.329C16.78,17.887,16.691,17.851,16.575,17.851z"/>
			<polygon fill="#FFFFFF" points="9.741,6.717 11.034,10.583 11.034,13.117 12.119,13.117 12.119,10.462 13.383,6.717 
				12.278,6.717 11.607,9.276 11.539,9.276 10.833,6.717 			"/>
			<path fill="#FFFFFF" d="M13.85,8.601c-0.258,0.217-0.388,0.507-0.388,0.875v2.447c0,0.402,0.127,0.719,0.378,0.957
				c0.255,0.237,0.592,0.358,1.014,0.358c0.438,0,0.783-0.116,1.034-0.346c0.248-0.232,0.374-0.547,0.374-0.951V9.503
				c0-0.359-0.128-0.655-0.382-0.884c-0.255-0.227-0.582-0.342-0.982-0.342C14.46,8.277,14.111,8.385,13.85,8.601z M15.279,9.439
				v2.573c0,0.125-0.04,0.226-0.116,0.299c-0.077,0.072-0.182,0.107-0.312,0.107c-0.128,0-0.227-0.034-0.295-0.106
				c-0.068-0.072-0.103-0.171-0.103-0.3V9.439c0-0.103,0.038-0.186,0.11-0.25c0.075-0.063,0.17-0.094,0.288-0.094
				c0.127,0,0.229,0.03,0.308,0.094C15.239,9.254,15.279,9.337,15.279,9.439z"/>
			<path fill="#FFFFFF" d="M19.795,13.117V8.396h-0.964v3.585c-0.089,0.103-0.188,0.187-0.297,0.254
				c-0.11,0.066-0.199,0.099-0.27,0.099c-0.09,0-0.156-0.024-0.196-0.076c-0.039-0.05-0.062-0.13-0.062-0.242v-3.62h-0.964v3.946
				c0,0.282,0.057,0.492,0.169,0.632c0.114,0.14,0.281,0.212,0.504,0.212c0.182,0,0.367-0.051,0.559-0.151
				c0.194-0.102,0.38-0.248,0.556-0.441v0.522H19.795z"/>
		</g>
	</g>
</g>
<g>
	<g>
		<circle fill="#E14E42" cx="865.694" cy="103.332" r="24.001"/>
		<g>
			<path fill="#FFFFFF" d="M874.293,102.703h-17.197c-2.734,0-4.949,2.219-4.949,4.953v3.977c0,2.734,2.215,4.951,4.949,4.951
				h17.197c2.734,0,4.949-2.217,4.949-4.951v-3.977C879.242,104.921,877.027,102.703,874.293,102.703z M860.709,105.8h-1.598v7.945
				h-1.547V105.8h-1.596v-1.35h4.74V105.8z M865.225,113.746h-1.371v-0.752c-0.254,0.277-0.514,0.49-0.789,0.633
				c-0.273,0.148-0.539,0.219-0.799,0.219c-0.316,0-0.553-0.1-0.713-0.307c-0.16-0.205-0.242-0.508-0.242-0.92v-5.732h1.371v5.262
				c0,0.162,0.029,0.279,0.084,0.352c0.061,0.074,0.154,0.109,0.283,0.109c0.098,0,0.227-0.047,0.383-0.145
				c0.152-0.098,0.295-0.219,0.422-0.369v-5.209h1.371V113.746z M870.199,112.328c0,0.486-0.107,0.857-0.322,1.117
				c-0.213,0.26-0.525,0.389-0.932,0.389c-0.27,0-0.508-0.049-0.719-0.15c-0.207-0.1-0.404-0.252-0.584-0.465v0.527h-1.385v-9.295
				h1.385v2.992c0.186-0.207,0.383-0.367,0.586-0.477c0.211-0.109,0.42-0.164,0.635-0.164c0.434,0,0.766,0.146,0.992,0.438
				c0.23,0.293,0.344,0.721,0.344,1.283V112.328z M874.953,110.482h-2.623v1.291c0,0.361,0.045,0.611,0.135,0.752
				s0.246,0.207,0.465,0.207c0.229,0,0.385-0.059,0.477-0.176c0.09-0.121,0.137-0.379,0.137-0.783v-0.313h1.41v0.354
				c0,0.701-0.17,1.23-0.518,1.588c-0.34,0.354-0.854,0.529-1.537,0.529c-0.615,0-1.1-0.186-1.451-0.564
				c-0.352-0.373-0.529-0.895-0.529-1.553v-3.082c0-0.594,0.193-1.08,0.584-1.455c0.387-0.373,0.883-0.561,1.5-0.561
				c0.627,0,1.109,0.174,1.445,0.521c0.338,0.348,0.506,0.844,0.506,1.494V110.482z"/>
			<path fill="#FFFFFF" d="M872.941,107.916c-0.217,0-0.375,0.063-0.467,0.189c-0.098,0.121-0.145,0.328-0.145,0.615v0.693h1.213
				v-0.693c0-0.287-0.049-0.494-0.145-0.615C873.307,107.978,873.15,107.916,872.941,107.916z"/>
			<path fill="#FFFFFF" d="M868.215,107.894c-0.098,0-0.195,0.02-0.291,0.064s-0.189,0.117-0.281,0.211v4.271
				c0.111,0.111,0.219,0.195,0.324,0.246c0.105,0.045,0.215,0.072,0.332,0.072c0.166,0,0.291-0.049,0.369-0.146
				s0.119-0.252,0.119-0.473v-3.541c0-0.232-0.049-0.408-0.143-0.527C868.543,107.953,868.4,107.894,868.215,107.894z"/>
			<polygon fill="#FFFFFF" points="857.279,90.08 859.348,96.265 859.348,100.32 861.084,100.32 861.084,96.072 863.107,90.08 
				861.34,90.08 860.266,94.173 860.156,94.173 859.027,90.08 			"/>
			<path fill="#FFFFFF" d="M863.854,93.093c-0.412,0.348-0.621,0.813-0.621,1.4v3.916c0,0.643,0.203,1.15,0.605,1.531
				c0.408,0.379,0.947,0.572,1.623,0.572c0.701,0,1.252-0.186,1.654-0.553c0.396-0.371,0.598-0.875,0.598-1.521v-3.902
				c0-0.574-0.205-1.049-0.611-1.414c-0.408-0.363-0.932-0.547-1.572-0.547C864.83,92.576,864.271,92.748,863.854,93.093z
				 M866.141,94.435v4.117c0,0.201-0.064,0.361-0.186,0.479c-0.123,0.115-0.291,0.172-0.498,0.172c-0.205,0-0.363-0.055-0.473-0.17
				s-0.164-0.273-0.164-0.48v-4.117c0-0.164,0.061-0.297,0.176-0.4c0.119-0.102,0.271-0.15,0.461-0.15
				c0.203,0,0.367,0.049,0.492,0.15C866.076,94.138,866.141,94.271,866.141,94.435z"/>
			<path fill="#FFFFFF" d="M873.367,100.32v-7.555h-1.543v5.736c-0.143,0.164-0.301,0.299-0.475,0.406
				c-0.176,0.105-0.318,0.158-0.432,0.158c-0.145,0-0.25-0.039-0.314-0.121c-0.063-0.08-0.098-0.209-0.098-0.387v-5.793h-1.543
				v6.314c0,0.451,0.092,0.787,0.271,1.012c0.182,0.225,0.449,0.34,0.807,0.34c0.291,0,0.588-0.082,0.895-0.242
				c0.311-0.162,0.607-0.396,0.889-0.705v0.836H873.367z"/>
		</g>
	</g>
	<linearGradient id="SVGID_1_" gradientUnits="userSpaceOnUse" x1="865.6934" y1="106.5493" x2="865.6934" y2="79.3315">
		<stop  offset="0" style="stop-color:#FFFFFF"/>
		<stop  offset="1" style="stop-color:#FFFFFF;stop-opacity:0"/>
	</linearGradient>
	<path opacity="0.4" fill="url(#SVGID_1_)" d="M865.754,79.332c-12.262,0-22.369,9.197-23.816,21.068
		c1.955,4.213,7.658,10.242,23.816,2.176c16.889-8.432,18.822-5.574,23.695-3.059C887.623,88.074,877.711,79.332,865.754,79.332z"/>
</g>
<g>
</g>
<g>
</g>
<g>
</g>
<g>
</g>
<g>
</g>
<g>
</g>
</svg>
