<?xml version="1.0" encoding="utf-8"?>
<!-- Generator: Adobe Illustrator 16.0.0, SVG Export Plug-In . SVG Version: 6.00 Build 0)  -->
<!DOCTYPE svg PUBLIC "-//W3C//DTD SVG 1.1//EN" "http://www.w3.org/Graphics/SVG/1.1/DTD/svg11.dtd">
<svg version="1.1" id="Layer_1" xmlns="http://www.w3.org/2000/svg" xmlns:xlink="http://www.w3.org/1999/xlink" x="0px" y="0px"
	 width="30px" height="29.999px" viewBox="0 0 30 29.999" enable-background="new 0 0 30 29.999" xml:space="preserve">
<g>
	<g>
		<circle fill="#2DAAE1" cx="15" cy="14.999" r="15"/>
		<g>
			<path fill="#FFFFFF" d="M23,8.371c-0.671,0.399-1.415,0.687-2.206,0.845c-0.634-0.676-1.537-1.099-2.536-1.099
				c-1.918,0-3.475,1.555-3.475,3.475c0,0.272,0.032,0.537,0.09,0.791c-2.888-0.145-5.448-1.527-7.162-3.63
				c-0.299,0.513-0.471,1.111-0.471,1.748c0,1.205,0.614,2.268,1.547,2.891c-0.57-0.017-1.106-0.175-1.575-0.435
				c0,0.015,0,0.03,0,0.044c0,1.683,1.197,3.087,2.788,3.407c-0.292,0.08-0.6,0.122-0.916,0.122c-0.225,0-0.442-0.021-0.654-0.062
				c0.443,1.38,1.726,2.385,3.246,2.413c-1.189,0.931-2.687,1.487-4.315,1.487c-0.281,0-0.557-0.017-0.83-0.049
				c1.539,0.985,3.365,1.561,5.326,1.561c6.392,0,9.886-5.293,9.886-9.885c0-0.15-0.002-0.301-0.01-0.45
				c0.679-0.49,1.269-1.101,1.733-1.798c-0.622,0.277-1.293,0.463-1.995,0.547C22.19,9.864,22.741,9.183,23,8.371z"/>
		</g>
	</g>
</g>
<g>
</g>
<g>
</g>
<g>
</g>
<g>
</g>
<g>
</g>
<g>
</g>
</svg>
